<mxfile host="app.diagrams.net" modified="2023-12-22T10:34:18.626Z" agent="Mozilla/5.0 (Windows NT 10.0; Win64; x64; rv:120.0) Gecko/20100101 Firefox/120.0" etag="aRvzakL8P78LztMJB1GA" version="22.1.11" type="device">
  <diagram name="Page-1" id="GL7TTKuaMwxEoFK2ME9e">
    <mxGraphModel dx="920" dy="779" grid="1" gridSize="10" guides="1" tooltips="1" connect="1" arrows="1" fold="1" page="1" pageScale="1" pageWidth="1169" pageHeight="827" math="0" shadow="0">
      <root>
        <mxCell id="0" />
        <mxCell id="1" parent="0" />
        <mxCell id="oC5tS1e1oAzOdPZ2T_Wq-33" value="" style="sketch=0;outlineConnect=0;fontColor=#232F3E;gradientColor=none;strokeColor=#232F3E;fillColor=#ffffff;dashed=0;verticalLabelPosition=bottom;verticalAlign=top;align=center;html=1;fontSize=12;fontStyle=0;aspect=fixed;shape=mxgraph.aws4.resourceIcon;resIcon=mxgraph.aws4.mqtt_protocol;fontFamily=Helvetica;strokeWidth=1;" vertex="1" parent="1">
          <mxGeometry x="465" y="220" width="40" height="40" as="geometry" />
        </mxCell>
        <mxCell id="oC5tS1e1oAzOdPZ2T_Wq-4" value="User Interface Module" style="rounded=0;whiteSpace=wrap;html=1;fillColor=#d5e8d4;strokeColor=#82b366;" vertex="1" parent="1">
          <mxGeometry x="830" y="260" width="140" height="60" as="geometry" />
        </mxCell>
        <mxCell id="oC5tS1e1oAzOdPZ2T_Wq-9" style="edgeStyle=orthogonalEdgeStyle;shape=connector;curved=1;rounded=0;orthogonalLoop=1;jettySize=auto;html=1;labelBackgroundColor=default;strokeColor=default;align=center;verticalAlign=middle;fontFamily=Helvetica;fontSize=13;fontColor=default;endArrow=classic;" edge="1" parent="1" source="oC5tS1e1oAzOdPZ2T_Wq-1" target="oC5tS1e1oAzOdPZ2T_Wq-2">
          <mxGeometry relative="1" as="geometry" />
        </mxCell>
        <mxCell id="oC5tS1e1oAzOdPZ2T_Wq-10" value="/call" style="edgeLabel;html=1;align=center;verticalAlign=middle;resizable=0;points=[];fontSize=13;fontFamily=Helvetica;fontColor=default;" vertex="1" connectable="0" parent="oC5tS1e1oAzOdPZ2T_Wq-9">
          <mxGeometry x="0.2243" y="20" relative="1" as="geometry">
            <mxPoint x="-10" as="offset" />
          </mxGeometry>
        </mxCell>
        <mxCell id="oC5tS1e1oAzOdPZ2T_Wq-14" style="edgeStyle=orthogonalEdgeStyle;shape=connector;curved=1;rounded=0;orthogonalLoop=1;jettySize=auto;html=1;labelBackgroundColor=default;strokeColor=default;align=center;verticalAlign=middle;fontFamily=Helvetica;fontSize=13;fontColor=default;endArrow=classic;exitX=1;exitY=0.75;exitDx=0;exitDy=0;entryX=0;entryY=0.75;entryDx=0;entryDy=0;" edge="1" parent="1" source="oC5tS1e1oAzOdPZ2T_Wq-1" target="oC5tS1e1oAzOdPZ2T_Wq-4">
          <mxGeometry relative="1" as="geometry">
            <Array as="points">
              <mxPoint x="585" y="330" />
              <mxPoint x="830" y="330" />
            </Array>
          </mxGeometry>
        </mxCell>
        <mxCell id="oC5tS1e1oAzOdPZ2T_Wq-20" value="/right/presence" style="edgeLabel;html=1;align=center;verticalAlign=middle;resizable=0;points=[];fontSize=13;fontFamily=Helvetica;fontColor=default;" vertex="1" connectable="0" parent="oC5tS1e1oAzOdPZ2T_Wq-14">
          <mxGeometry x="0.0013" y="-1" relative="1" as="geometry">
            <mxPoint x="2" y="-1" as="offset" />
          </mxGeometry>
        </mxCell>
        <mxCell id="oC5tS1e1oAzOdPZ2T_Wq-1" value="MQTT Broker" style="rounded=0;whiteSpace=wrap;html=1;fillColor=#dae8fc;strokeColor=#6c8ebf;" vertex="1" parent="1">
          <mxGeometry x="465" y="260" width="120" height="60" as="geometry" />
        </mxCell>
        <mxCell id="oC5tS1e1oAzOdPZ2T_Wq-2" value="Left Elevator Integration Module" style="rounded=0;whiteSpace=wrap;html=1;fillColor=#fff2cc;strokeColor=#d6b656;" vertex="1" parent="1">
          <mxGeometry x="280" y="460" width="120" height="60" as="geometry" />
        </mxCell>
        <mxCell id="oC5tS1e1oAzOdPZ2T_Wq-12" style="edgeStyle=orthogonalEdgeStyle;shape=connector;curved=1;rounded=0;orthogonalLoop=1;jettySize=auto;html=1;labelBackgroundColor=default;strokeColor=default;align=center;verticalAlign=middle;fontFamily=Helvetica;fontSize=13;fontColor=default;endArrow=classic;" edge="1" parent="1" source="oC5tS1e1oAzOdPZ2T_Wq-3" target="oC5tS1e1oAzOdPZ2T_Wq-1">
          <mxGeometry relative="1" as="geometry" />
        </mxCell>
        <mxCell id="oC5tS1e1oAzOdPZ2T_Wq-17" value="/right/presence 1" style="edgeLabel;html=1;align=center;verticalAlign=middle;resizable=0;points=[];fontSize=13;fontFamily=Helvetica;fontColor=default;" vertex="1" connectable="0" parent="oC5tS1e1oAzOdPZ2T_Wq-12">
          <mxGeometry x="-0.4428" y="-31" relative="1" as="geometry">
            <mxPoint x="24" y="-9" as="offset" />
          </mxGeometry>
        </mxCell>
        <mxCell id="oC5tS1e1oAzOdPZ2T_Wq-26" style="edgeStyle=orthogonalEdgeStyle;shape=connector;curved=1;rounded=0;orthogonalLoop=1;jettySize=auto;html=1;labelBackgroundColor=default;strokeColor=default;align=center;verticalAlign=middle;fontFamily=Helvetica;fontSize=13;fontColor=default;endArrow=classic;" edge="1" parent="1" source="oC5tS1e1oAzOdPZ2T_Wq-3" target="oC5tS1e1oAzOdPZ2T_Wq-1">
          <mxGeometry relative="1" as="geometry">
            <Array as="points">
              <mxPoint x="700" y="390" />
              <mxPoint x="550" y="390" />
            </Array>
          </mxGeometry>
        </mxCell>
        <mxCell id="oC5tS1e1oAzOdPZ2T_Wq-27" value="/calling 0" style="edgeLabel;html=1;align=center;verticalAlign=middle;resizable=0;points=[];fontSize=13;fontFamily=Helvetica;fontColor=default;" vertex="1" connectable="0" parent="oC5tS1e1oAzOdPZ2T_Wq-26">
          <mxGeometry x="0.0759" relative="1" as="geometry">
            <mxPoint as="offset" />
          </mxGeometry>
        </mxCell>
        <mxCell id="oC5tS1e1oAzOdPZ2T_Wq-3" value="Right Elevator Integration Module" style="rounded=0;whiteSpace=wrap;html=1;fillColor=#fff2cc;strokeColor=#d6b656;" vertex="1" parent="1">
          <mxGeometry x="640" y="460" width="120" height="60" as="geometry" />
        </mxCell>
        <mxCell id="oC5tS1e1oAzOdPZ2T_Wq-5" style="edgeStyle=orthogonalEdgeStyle;rounded=0;orthogonalLoop=1;jettySize=auto;html=1;curved=1;entryX=1;entryY=0.25;entryDx=0;entryDy=0;exitX=0;exitY=0.25;exitDx=0;exitDy=0;" edge="1" parent="1" source="oC5tS1e1oAzOdPZ2T_Wq-4" target="oC5tS1e1oAzOdPZ2T_Wq-1">
          <mxGeometry relative="1" as="geometry">
            <Array as="points">
              <mxPoint x="830" y="240" />
              <mxPoint x="585" y="240" />
            </Array>
          </mxGeometry>
        </mxCell>
        <mxCell id="oC5tS1e1oAzOdPZ2T_Wq-6" value="/call" style="edgeLabel;html=1;align=center;verticalAlign=middle;resizable=0;points=[];fontSize=13;" vertex="1" connectable="0" parent="oC5tS1e1oAzOdPZ2T_Wq-5">
          <mxGeometry x="0.0142" y="1" relative="1" as="geometry">
            <mxPoint as="offset" />
          </mxGeometry>
        </mxCell>
        <mxCell id="oC5tS1e1oAzOdPZ2T_Wq-24" style="edgeStyle=orthogonalEdgeStyle;shape=connector;curved=1;rounded=0;orthogonalLoop=1;jettySize=auto;html=1;exitX=0;exitY=0.25;exitDx=0;exitDy=0;entryX=1;entryY=0.25;entryDx=0;entryDy=0;labelBackgroundColor=default;strokeColor=default;align=center;verticalAlign=middle;fontFamily=Helvetica;fontSize=13;fontColor=default;endArrow=classic;" edge="1" parent="1" source="oC5tS1e1oAzOdPZ2T_Wq-4" target="oC5tS1e1oAzOdPZ2T_Wq-1">
          <mxGeometry relative="1" as="geometry">
            <Array as="points">
              <mxPoint x="830" y="260" />
              <mxPoint x="585" y="260" />
            </Array>
          </mxGeometry>
        </mxCell>
        <mxCell id="oC5tS1e1oAzOdPZ2T_Wq-25" value="/calling 1" style="edgeLabel;html=1;align=center;verticalAlign=middle;resizable=0;points=[];fontSize=13;fontFamily=Helvetica;fontColor=default;" vertex="1" connectable="0" parent="oC5tS1e1oAzOdPZ2T_Wq-24">
          <mxGeometry x="0.052" y="-1" relative="1" as="geometry">
            <mxPoint as="offset" />
          </mxGeometry>
        </mxCell>
        <mxCell id="oC5tS1e1oAzOdPZ2T_Wq-11" style="edgeStyle=orthogonalEdgeStyle;shape=connector;curved=1;rounded=0;orthogonalLoop=1;jettySize=auto;html=1;labelBackgroundColor=default;strokeColor=default;align=center;verticalAlign=middle;fontFamily=Helvetica;fontSize=13;fontColor=default;endArrow=classic;" edge="1" parent="1" source="oC5tS1e1oAzOdPZ2T_Wq-2" target="oC5tS1e1oAzOdPZ2T_Wq-1">
          <mxGeometry relative="1" as="geometry">
            <mxPoint x="540" y="350" as="targetPoint" />
          </mxGeometry>
        </mxCell>
        <mxCell id="oC5tS1e1oAzOdPZ2T_Wq-16" value="/left/presence 0" style="edgeLabel;html=1;align=center;verticalAlign=middle;resizable=0;points=[];fontSize=13;fontFamily=Helvetica;fontColor=default;" vertex="1" connectable="0" parent="oC5tS1e1oAzOdPZ2T_Wq-11">
          <mxGeometry x="-0.8196" y="5" relative="1" as="geometry">
            <mxPoint x="34" y="-35" as="offset" />
          </mxGeometry>
        </mxCell>
        <mxCell id="oC5tS1e1oAzOdPZ2T_Wq-29" value="" style="shape=mxgraph.signs.travel.elevator;html=1;pointerEvents=1;fillColor=#000000;strokeColor=none;verticalLabelPosition=bottom;verticalAlign=top;align=center;fontFamily=Helvetica;fontSize=13;fontColor=default;" vertex="1" parent="1">
          <mxGeometry x="770" y="465" width="32.5" height="50" as="geometry" />
        </mxCell>
        <mxCell id="oC5tS1e1oAzOdPZ2T_Wq-30" value="" style="shape=umlActor;verticalLabelPosition=bottom;verticalAlign=top;html=1;outlineConnect=0;fontFamily=Helvetica;fontSize=13;fontColor=default;strokeWidth=5;" vertex="1" parent="1">
          <mxGeometry x="980" y="265" width="25" height="50" as="geometry" />
        </mxCell>
        <mxCell id="oC5tS1e1oAzOdPZ2T_Wq-21" style="edgeStyle=orthogonalEdgeStyle;shape=connector;curved=1;rounded=0;orthogonalLoop=1;jettySize=auto;html=1;exitX=1;exitY=0.75;exitDx=0;exitDy=0;entryX=0;entryY=0.75;entryDx=0;entryDy=0;labelBackgroundColor=default;strokeColor=default;align=center;verticalAlign=middle;fontFamily=Helvetica;fontSize=13;fontColor=default;endArrow=classic;" edge="1" parent="1" source="oC5tS1e1oAzOdPZ2T_Wq-1" target="oC5tS1e1oAzOdPZ2T_Wq-4">
          <mxGeometry relative="1" as="geometry">
            <Array as="points">
              <mxPoint x="585" y="310" />
              <mxPoint x="830" y="310" />
            </Array>
          </mxGeometry>
        </mxCell>
        <mxCell id="oC5tS1e1oAzOdPZ2T_Wq-22" value="/left/presence" style="edgeLabel;html=1;align=center;verticalAlign=middle;resizable=0;points=[];fontSize=13;fontFamily=Helvetica;fontColor=default;" vertex="1" connectable="0" parent="oC5tS1e1oAzOdPZ2T_Wq-21">
          <mxGeometry x="-0.0117" y="-2" relative="1" as="geometry">
            <mxPoint x="4" y="-2" as="offset" />
          </mxGeometry>
        </mxCell>
        <mxCell id="oC5tS1e1oAzOdPZ2T_Wq-34" value="" style="shape=mxgraph.signs.travel.elevator;html=1;pointerEvents=1;fillColor=#000000;strokeColor=none;verticalLabelPosition=bottom;verticalAlign=top;align=center;fontFamily=Helvetica;fontSize=13;fontColor=default;" vertex="1" parent="1">
          <mxGeometry x="237" y="465" width="32.5" height="50" as="geometry" />
        </mxCell>
      </root>
    </mxGraphModel>
  </diagram>
</mxfile>
